<svg width="24" height="27" xmlns="http://www.w3.org/2000/svg">
  <g fill="#000" stroke="#000" stroke-width=".6" fill-rule="evenodd">
    <path d="M11.5 1.119l-.058-.069A10.227 10.227 0 0 0 7.9 8.806c0 2.988 1.296 5.825 3.542 7.756l.058.05.058-.05A10.227 10.227 0 0 0 15.1 8.806c0-2.988-1.296-5.825-3.542-7.756L11.5 1l-.058.05.058.069-.058.068a10.045 10.045 0 0 1 3.48 7.62c0 2.934-1.272 5.721-3.48 7.618l.058.069.058-.069a10.045 10.045 0 0 1-3.48-7.619c0-2.935 1.272-5.722 3.48-7.619L11.5 1.12l-.058.068.058-.068z"/>
    <path d="M22.79 5.414V5.32a10.051 10.051 0 0 0-8.016 2.999 10.469 10.469 0 0 0-2.939 8.18v.076h.075c.28.024.558.036.835.036 2.694 0 5.277-1.091 7.182-3.035a10.469 10.469 0 0 0 2.938-8.18V5.32l-.075-.004v.092h-.09c.022.279.033.558.033.837 0 2.7-1.05 5.29-2.921 7.199a9.874 9.874 0 0 1-7.878 2.947v.092h.09a10.509 10.509 0 0 1-.034-.839c.003-5.615 4.462-10.167 9.965-10.173.275 0 .55.012.823.035v-.092h-.09.102z"/>
    <path d="M1.127 5.412v.091a9.885 9.885 0 0 1 7.878 2.94 10.252 10.252 0 0 1 2.888 8.021h.09v-.092a9.974 9.974 0 0 1-.823.034c-5.508.002-9.975-4.542-9.978-10.151 0-.279.011-.557.033-.835h-.09v.092-.092h-.09a10.435 10.435 0 0 0 2.938 8.163 10.062 10.062 0 0 0 8.017 2.994h.075V16.5c.022-.283.034-.567.035-.85a10.436 10.436 0 0 0-2.961-7.324 10.062 10.062 0 0 0-7.182-3.04c-.28 0-.558.012-.835.035h-.075v.077l.08.014zM11.8 25.68l.062.068c1.102-.864 1.738-2.134 1.738-3.472 0-1.337-.636-2.607-1.738-3.472l-.062-.049-.062.05C10.636 19.668 10 20.938 10 22.275c0 1.338.636 2.608 1.738 3.472l.062.048.062-.048-.062-.067.062-.068c-1.06-.83-1.67-2.051-1.67-3.337 0-1.285.61-2.506 1.67-3.337l-.062-.067-.062.067c1.06.831 1.67 2.052 1.67 3.337 0 1.286-.61 2.506-1.67 3.337l.062.068.062-.068-.062.068z"/>
    <path d="M6.796 23.852v.092c.134.01.27.015.404.015 1.3 0 2.546-.497 3.465-1.383a4.638 4.638 0 0 0 1.419-3.729v-.077h-.08a4.993 4.993 0 0 0-3.87 1.368 4.638 4.638 0 0 0-1.418 3.729v.077h.08v-.092h.095a4.458 4.458 0 0 1 1.363-3.583 4.8 4.8 0 0 1 3.718-1.316v-.092h-.095a4.458 4.458 0 0 1-1.363 3.586 4.8 4.8 0 0 1-3.72 1.314v.092h.096l-.094-.001z"/>
    <path d="M17.09 23.86v-.092a4.804 4.804 0 0 1-3.722-1.314 4.457 4.457 0 0 1-1.364-3.586h-.096v.092a4.804 4.804 0 0 1 3.72 1.315 4.457 4.457 0 0 1 1.38 3.21c0 .126 0 .25-.016.373h.096v-.092.092h.096c.01-.13.016-.259.016-.388-.004-2.604-2.196-4.714-4.9-4.715-.135 0-.27.005-.404.015h-.08v.077a4.636 4.636 0 0 0 1.42 3.729 4.998 4.998 0 0 0 3.872 1.368h.08v-.077l-.098-.007z"/>
  </g>
</svg>